<svg width="146" height="25" viewBox="0 0 146 25" fill="none" xmlns="http://www.w3.org/2000/svg">
<path d="M40.2964 17.5234V9.26738C40.2964 7.69038 40.6624 6.44738 41.3944 5.53738C42.1274 4.62738 43.0444 4.17238 44.1444 4.17238C46.3024 4.17238 47.3814 5.74938 47.3814 8.90338V17.5234H51.1634V7.94338C51.1634 5.52838 50.6634 3.72338 49.6604 2.52638C48.6584 1.32938 47.2274 0.731384 45.3664 0.731384C44.1444 0.731384 43.0264 0.965384 42.0144 1.43438C41.0081 1.89777 40.1295 2.59892 39.4544 3.47738H39.3884C38.4084 1.64638 36.7684 0.731384 34.4664 0.731384C33.4974 0.731384 32.5644 0.948384 31.6674 1.38438C30.7557 1.83166 29.9527 2.47258 29.3144 3.26238H29.2644V0.979384H25.4824V17.5064H29.2644V9.26738C29.2644 7.69038 29.6364 6.44738 30.3794 5.53738C31.1224 4.62738 32.0724 4.17238 33.2284 4.17238C35.4184 4.17238 36.5144 5.74938 36.5144 8.90338V17.5234H40.2964ZM61.3974 17.7714C63.6434 17.7714 65.3944 16.9444 66.6494 15.2894H66.6994V17.5064H70.3154V0.979384H66.5334V2.96438H66.4674C65.2124 1.47538 63.5124 0.731384 61.3644 0.731384C60.3026 0.723844 59.2506 0.934284 58.2734 1.34968C57.2963 1.76508 56.4148 2.37659 55.6834 3.14638C54.9784 3.89638 54.4234 4.80638 54.0154 5.87638C53.6028 6.97596 53.3957 8.14198 53.4044 9.31638C53.4044 10.5744 53.6074 11.7324 54.0144 12.7914C54.4224 13.8504 54.9784 14.7434 55.6834 15.4714C56.4005 16.2078 57.2641 16.7856 58.2184 17.1674C59.2287 17.5748 60.3091 17.78 61.3984 17.7714H61.3974ZM61.9924 14.3304C60.5934 14.3304 59.4544 13.8644 58.5734 12.9324C57.6934 12.0004 57.2524 10.8004 57.2524 9.33338C57.2524 7.77838 57.7064 6.52938 58.6144 5.58638C59.5234 4.64338 60.6544 4.17238 62.0084 4.17238C63.3514 4.17238 64.4664 4.66538 65.3534 5.65238C66.2394 6.64038 66.6834 7.86738 66.6834 9.33338C66.6834 10.8004 66.2284 12.0004 65.3204 12.9324C64.4114 13.8644 63.3024 14.3304 61.9924 14.3304ZM89.1044 17.5234V7.77838C89.1044 5.38538 88.5684 3.61238 87.4944 2.45938C86.4224 1.30738 84.9374 0.731384 83.0444 0.731384C81.9914 0.725679 80.9493 0.945613 79.9884 1.37638C79.0325 1.80527 78.1858 2.44451 77.5114 3.24638H77.4614V0.978384H73.6794V17.5054H77.4614V9.20138C77.4614 7.61338 77.8494 6.37838 78.6254 5.49538C79.4024 4.61338 80.4394 4.17238 81.7384 4.17238C82.3334 4.17238 82.8424 4.24938 83.2664 4.40338C83.6904 4.55838 84.0624 4.80938 84.3814 5.15638C84.7014 5.50438 84.9374 5.97538 85.0914 6.57138C85.2454 7.16638 85.3224 7.89438 85.3224 8.75438V17.5234H89.1044ZM99.3224 17.7714C101.568 17.7714 103.318 16.9444 104.574 15.2894H104.624V17.5064H108.24V0.979384H104.458V2.96438H104.392C103.137 1.47538 101.436 0.731384 99.2894 0.731384C98.2275 0.723707 97.1753 0.93408 96.1979 1.34948C95.2206 1.76488 94.3389 2.37647 93.6074 3.14638C92.9034 3.89638 92.3474 4.80638 91.9394 5.87638C91.5272 6.97602 91.3204 8.14204 91.3294 9.31638C91.3294 10.5744 91.5324 11.7324 91.9394 12.7914C92.3474 13.8504 92.9034 14.7434 93.6074 15.4714C94.3248 16.2079 95.1887 16.7857 96.1434 17.1674C97.1534 17.5747 98.2334 17.7799 99.3224 17.7714ZM99.9164 14.3304C98.5184 14.3304 97.3784 13.8644 96.4984 12.9324C95.6174 12.0004 95.1764 10.8004 95.1764 9.33338C95.1764 7.77838 95.6314 6.52938 96.5394 5.58638C97.4474 4.64338 98.5794 4.17238 99.9334 4.17238C101.276 4.17238 102.391 4.66538 103.277 5.65238C104.163 6.64038 104.607 7.86738 104.607 9.33338C104.607 10.8004 104.152 12.0004 103.244 12.9324C102.336 13.8644 101.226 14.3304 99.9164 14.3304ZM118.986 24.4554C120.186 24.4554 121.26 24.3154 122.206 24.0334C123.153 23.7524 123.949 23.3604 124.593 22.8584C125.241 22.3525 125.785 21.7264 126.195 21.0144C126.624 20.2732 126.933 19.469 127.111 18.6314C127.299 17.7714 127.392 16.8284 127.392 15.8024V0.979384H123.61V2.71638H123.544C122.867 2.06838 122.067 1.56186 121.191 1.22638C120.309 0.885417 119.371 0.711791 118.424 0.714384C116.916 0.714384 115.562 1.07238 114.362 1.78938C113.162 2.50638 112.228 3.50238 111.562 4.77638C110.896 6.04938 110.563 7.48138 110.563 9.06938C110.563 10.6794 110.913 12.1074 111.612 13.3544C112.311 14.6004 113.272 15.5574 114.494 16.2244C115.716 16.8914 117.092 17.2254 118.623 17.2254C120.67 17.2254 122.339 16.5524 123.627 15.2074H123.693V16.9604C123.693 18.1304 123.263 19.1004 122.405 19.8724C121.545 20.6444 120.335 21.0304 118.771 21.0304C117.703 21.0304 116.765 20.8984 115.955 20.6334C115.146 20.3684 114.213 19.9554 113.156 19.3934L112.264 22.7344C113.189 23.2864 114.23 23.7104 115.386 24.0084C116.542 24.3064 117.742 24.4554 118.986 24.4554ZM119.118 13.7354C117.753 13.7354 116.627 13.3014 115.741 12.4354C114.854 11.5704 114.411 10.4094 114.411 8.95338C114.411 7.55338 114.846 6.41138 115.716 5.52838C116.586 4.64638 117.72 4.20538 119.118 4.20538C120.45 4.20538 121.56 4.64038 122.446 5.51238C123.332 6.38338 123.776 7.51438 123.776 8.90338C123.776 10.3044 123.343 11.4594 122.479 12.3694C121.615 13.2794 120.494 13.7344 119.118 13.7344V13.7354ZM138.204 17.7714C139.746 17.7714 141.103 17.4904 142.275 16.9274C143.448 16.3654 144.408 15.6044 145.157 14.6444L142.515 12.3784C141.48 13.6794 140.109 14.3304 138.402 14.3304C137.192 14.3304 136.165 13.9934 135.322 13.3204C134.48 12.6484 133.938 11.7274 133.695 10.5584H145.719C145.785 10.1614 145.818 9.65838 145.818 9.05238C145.818 7.45338 145.493 6.02538 144.843 4.76738C144.213 3.53031 143.238 2.50199 142.036 1.80638C140.814 1.08938 139.404 0.731384 137.808 0.731384C136.715 0.723194 135.631 0.934004 134.62 1.35138C133.63 1.76538 132.776 2.34138 132.06 3.08038C131.345 3.81938 130.783 4.71838 130.376 5.77638C129.969 6.83638 129.765 7.98838 129.765 9.23438C129.765 10.9224 130.134 12.4194 130.871 13.7264C131.609 15.0334 132.617 16.0344 133.894 16.7294C135.171 17.4244 136.608 17.7714 138.204 17.7714ZM142.019 7.49738H133.762C134.026 6.43838 134.538 5.61938 135.297 5.04038C136.057 4.46138 136.96 4.17238 138.006 4.17238C139.063 4.17238 139.936 4.47038 140.624 5.06538C141.312 5.66138 141.777 6.47138 142.019 7.49738Z" fill="white"/>
<path fill-rule="evenodd" clip-rule="evenodd" d="M3.06847 11.0004C4.60647 11.0004 5.85347 12.2794 5.85347 13.8574C5.85347 15.4344 4.60647 16.7144 3.06847 16.7144C1.52947 16.7144 0.282471 15.4344 0.282471 13.8574C0.282471 12.2794 1.52947 11.0004 3.06847 11.0004ZM3.06847 0.714355C4.60647 0.714355 5.85247 1.99436 5.85247 3.57136C5.85247 5.14936 4.60547 6.42836 3.06747 6.42836C1.52947 6.42836 0.282471 5.14936 0.282471 3.57136C0.282471 1.99436 1.52947 0.714355 3.06847 0.714355ZM13.0965 0.714355C14.6355 0.714355 15.8825 1.99436 15.8825 3.57136C15.8825 5.14936 14.6355 6.42836 13.0965 6.42836C11.5585 6.42836 10.3115 5.14936 10.3115 3.57136C10.3115 1.99436 11.5585 0.714355 13.0965 0.714355Z" fill="#3CDDF3"/>
<path opacity="0.5" d="M13.0964 16.8283C14.6351 16.8283 15.8824 15.5491 15.8824 13.9713C15.8824 12.3934 14.6351 11.1143 13.0964 11.1143C11.5578 11.1143 10.3104 12.3934 10.3104 13.9713C10.3104 15.5491 11.5578 16.8283 13.0964 16.8283Z" fill="#3CDDF3"/>
</svg>
